<svg width="25" height="20" viewBox="0 0 25 20" fill="none" xmlns="http://www.w3.org/2000/svg">
<path d="M8.14449 19.8857C16.9893 19.8857 21.8261 12.5581 21.8261 6.20405C21.8261 5.99594 21.8218 5.78868 21.8125 5.58257C22.7513 4.90376 23.5673 4.05667 24.2112 3.09248C23.3496 3.47561 22.4222 3.73317 21.4497 3.8497C22.4425 3.25416 23.2047 2.31248 23.5642 1.18991C22.6351 1.74073 21.6061 2.14091 20.5108 2.35705C19.6333 1.42239 18.3839 0.837891 17.0006 0.837891C14.3453 0.837891 12.1917 2.99129 12.1917 5.64578C12.1917 6.02331 12.234 6.39024 12.3164 6.74226C8.31993 6.54117 4.77593 4.62784 2.40452 1.71823C1.99173 2.42872 1.75351 3.25431 1.75351 4.13522C1.75351 5.8033 2.60246 7.27631 3.8933 8.13773C3.10441 8.11351 2.36338 7.89693 1.71553 7.53646C1.71481 7.55667 1.71481 7.5763 1.71481 7.5978C1.71481 9.92664 3.37229 11.8711 5.57285 12.3117C5.16866 12.4216 4.74339 12.4808 4.3048 12.4808C3.99549 12.4808 3.69392 12.4504 3.40096 12.3941C4.01312 14.3047 5.78842 15.695 7.89309 15.734C6.24722 17.024 4.17394 17.7924 1.92064 17.7924C1.53307 17.7924 1.14995 17.7701 0.77356 17.7257C2.90174 19.0898 5.4288 19.8858 8.14463 19.8858" fill="white"/>
</svg>
