<svg width="23" height="23" viewBox="0 0 23 23" fill="none" xmlns="http://www.w3.org/2000/svg">
<path d="M20.8719 11.644C20.6342 10.6114 19.7896 9.84968 18.7729 9.7363C16.3661 9.46743 13.9288 9.46616 11.5034 9.46743C9.07702 9.46616 6.64022 9.46743 4.2326 9.7363C3.21649 9.84993 2.37235 10.6116 2.13494 11.644C1.79657 13.1144 1.79251 14.7195 1.79251 16.2335C1.79251 17.7475 1.79251 19.3523 2.13088 20.8227C2.36829 21.8551 3.21243 22.6168 4.22905 22.7304C6.63617 22.9995 9.07296 23.0005 11.4991 22.9995C13.9255 23.0008 16.3618 22.9995 18.7696 22.7304C19.7858 22.6168 20.6304 21.8551 20.8678 20.8227C21.2059 19.3523 21.2077 17.7475 21.2077 16.2335C21.2075 14.7192 21.21 13.1144 20.8719 11.644ZM7.3304 12.7836H5.92519V20.2505H4.61992V12.7836H3.24033V11.5605H7.3304V12.7836ZM10.8756 20.2507H9.7015V19.5443C9.23504 20.079 8.79217 20.3398 8.36072 20.3398C7.98253 20.3398 7.72228 20.1866 7.60485 19.8586C7.54093 19.6628 7.50136 19.3528 7.50136 18.8958V13.7756H8.67448V18.5429C8.67448 18.8179 8.67448 18.9607 8.68513 18.9992C8.71329 19.1814 8.80232 19.2737 8.95958 19.2737C9.19496 19.2737 9.441 19.0923 9.70124 18.7243V13.7756H10.8754L10.8756 20.2507ZM15.333 18.3073C15.333 18.9062 15.2926 19.3376 15.2143 19.6121C15.0575 20.0937 14.7438 20.3398 14.277 20.3398C13.8595 20.3398 13.4567 20.1079 13.0644 19.6235V20.251H11.8912V11.5605H13.0644V14.3986C13.4433 13.9321 13.8456 13.6962 14.277 13.6962C14.7438 13.6962 15.0578 13.942 15.2143 14.4267C15.2932 14.6872 15.333 15.1154 15.333 15.7285V18.3073ZM19.7609 17.227H17.4144V18.3748C17.4144 18.9741 17.6105 19.2734 18.0138 19.2734C18.3027 19.2734 18.4709 19.1164 18.5378 18.8029C18.5487 18.7393 18.5642 18.4785 18.5642 18.008H19.7612V18.1792C19.7612 18.5574 19.7467 18.8179 19.736 18.9351C19.6967 19.1948 19.6044 19.4304 19.4621 19.6379C19.1372 20.1082 18.6558 20.34 18.0429 20.34C17.4291 20.34 16.9619 20.1191 16.6228 19.677C16.3739 19.3528 16.2461 18.8425 16.2461 18.1543V15.8865C16.2461 15.1943 16.3595 14.688 16.6088 14.3608C16.9477 13.9177 17.4147 13.697 18.014 13.697C18.6027 13.697 19.0695 13.9177 19.3982 14.3608C19.644 14.688 19.7614 15.1943 19.7614 15.8865V17.227H19.7609Z" fill="white"/>
<path d="M18.0034 14.7529C17.6112 14.7529 17.4147 15.0525 17.4147 15.6511V16.2502H18.5878V15.6511C18.5875 15.0525 18.3915 14.7529 18.0034 14.7529Z" fill="white"/>
<path d="M13.6493 14.7529C13.456 14.7529 13.2602 14.8442 13.0641 15.0383V18.9848C13.2599 19.1811 13.456 19.2739 13.6493 19.2739C13.9876 19.2739 14.1596 18.9848 14.1596 18.4001V15.6364C14.1596 15.0525 13.9876 14.7529 13.6493 14.7529Z" fill="white"/>
<path d="M14.3047 8.87095C14.7372 8.87095 15.1872 8.60817 15.6592 8.06739V8.78116H16.845V2.2373H15.6592V7.23873C15.3964 7.61007 15.1473 7.79371 14.9102 7.79371C14.7514 7.79371 14.6581 7.69986 14.6322 7.51596C14.6177 7.47716 14.6177 7.33283 14.6177 7.05509V2.2373H13.4357V7.41171C13.4357 7.87386 13.4753 8.18661 13.5407 8.38471C13.66 8.71622 13.923 8.87095 14.3047 8.87095Z" fill="white"/>
<path d="M6.04971 5.22463V8.78102H7.36462V5.22463L8.94637 0H7.61675L6.7196 3.44834L5.78617 0H4.40253C4.67976 0.813955 4.96816 1.63197 5.2454 2.44668C5.66721 3.67129 5.9305 4.59457 6.04971 5.22463Z" fill="white"/>
<path d="M10.7088 8.87099C11.3028 8.87099 11.7644 8.64752 12.0919 8.2011C12.3407 7.87364 12.4599 7.35772 12.4599 6.66222V4.37077C12.4599 3.67121 12.341 3.15986 12.0919 2.82935C11.7644 2.38167 11.303 2.1582 10.7088 2.1582C10.1178 2.1582 9.65637 2.38167 9.32815 2.82935C9.07628 3.15986 8.95706 3.67121 8.95706 4.37077V6.66222C8.95706 7.35772 9.07628 7.87364 9.32815 8.2011C9.65611 8.64752 10.1178 8.87099 10.7088 8.87099ZM10.1429 4.1331C10.1429 3.52765 10.3265 3.22581 10.7088 3.22581C11.091 3.22581 11.2741 3.52739 11.2741 4.1331V6.88569C11.2741 7.49114 11.091 7.794 10.7088 7.794C10.3265 7.794 10.1429 7.49114 10.1429 6.88569V4.1331Z" fill="white"/>
</svg>
